<svg width="32" height="32" viewBox="0 0 32 32" fill="none" xmlns="http://www.w3.org/2000/svg">
<path fill-rule="evenodd" clip-rule="evenodd" d="M16 3.66663C9.18851 3.66663 3.66669 9.18845 3.66669 16C3.66669 22.8115 9.18851 28.3333 16 28.3333C22.8115 28.3333 28.3334 22.8115 28.3334 16C28.3334 9.18845 22.8115 3.66663 16 3.66663ZM1.66669 16C1.66669 8.08388 8.08394 1.66663 16 1.66663C23.9161 1.66663 30.3334 8.08388 30.3334 16C30.3334 23.916 23.9161 30.3333 16 30.3333C8.08394 30.3333 1.66669 23.916 1.66669 16Z" fill="#666666"/>
<path fill-rule="evenodd" clip-rule="evenodd" d="M14.656 20C14.656 19.2636 15.253 18.6666 15.9894 18.6666H16.0014C16.7377 18.6666 17.3347 19.2636 17.3347 20C17.3347 20.7363 16.7377 21.3333 16.0014 21.3333H15.9894C15.253 21.3333 14.656 20.7363 14.656 20Z" fill="#666666"/>
<path fill-rule="evenodd" clip-rule="evenodd" d="M16 9.66663C16.5523 9.66663 17 10.1143 17 10.6666V16C17 16.5522 16.5523 17 16 17C15.4477 17 15 16.5522 15 16V10.6666C15 10.1143 15.4477 9.66663 16 9.66663Z" fill="#666666"/>
</svg>
