<svg width="32" height="32" viewBox="0 0 32 32" fill="none" xmlns="http://www.w3.org/2000/svg">
<path fill-rule="evenodd" clip-rule="evenodd" d="M8.00004 1.66663C8.55233 1.66663 9.00004 2.11434 9.00004 2.66663V3.15448C10.5148 2.99992 12.3787 2.99994 14.6524 2.99996L14.7334 2.99996H17.2667L17.3477 2.99996C19.6213 2.99994 21.4853 2.99992 23 3.15448V2.66663C23 2.11434 23.4478 1.66663 24 1.66663C24.5523 1.66663 25 2.11434 25 2.66663V3.51301C26.0731 3.81713 26.978 4.31142 27.7313 5.12577C28.7685 6.24709 29.2296 7.66385 29.4504 9.4393C29.6667 11.179 29.6667 13.4086 29.6667 16.2534V16.3243V17.009V17.0799C29.6667 19.9247 29.6667 22.1542 29.4504 23.8939C29.2296 25.6694 28.7685 27.0862 27.7313 28.2075C26.6838 29.3399 25.343 29.8534 23.665 30.0973C22.041 30.3333 19.966 30.3333 17.3477 30.3333H17.2667H14.7334H14.6524C12.0341 30.3333 9.95913 30.3333 8.33509 30.0973C6.65706 29.8534 5.31623 29.3399 4.26877 28.2075C3.23155 27.0862 2.77051 25.6694 2.54971 23.8939C2.33335 22.1542 2.33336 19.9247 2.33337 17.0799V17.009V16.3243V16.2533C2.33336 13.4086 2.33335 11.179 2.54971 9.4393C2.77051 7.66385 3.23155 6.24709 4.26877 5.12577C5.02204 4.31142 5.92703 3.81713 7.00004 3.51301V2.66663C7.00004 2.11434 7.44776 1.66663 8.00004 1.66663ZM8.00004 6.33329C7.54293 6.33329 7.15746 6.02659 7.03818 5.60775C6.4951 5.82384 6.08275 6.11004 5.73697 6.48386C5.10729 7.16458 4.73407 8.09777 4.53686 9.66663H27.4632C27.266 8.09777 26.8928 7.16458 26.2631 6.48386C25.9173 6.11004 25.505 5.82384 24.9619 5.60775C24.8426 6.0266 24.4571 6.33329 24 6.33329C23.4478 6.33329 23 5.88558 23 5.33329V5.16607C21.5854 5.00204 19.7569 4.99996 17.2667 4.99996H14.7334C12.2432 4.99996 10.4147 5.00204 9.00004 5.16607V5.33329C9.00004 5.88558 8.55233 6.33329 8.00004 6.33329ZM27.6148 11.6666H4.38527C4.33411 12.9425 4.33337 14.4677 4.33337 16.3243V17.009C4.33337 19.94 4.3352 22.0452 4.53442 23.6471C4.73099 25.2278 5.10469 26.1659 5.73697 26.8494C6.35899 27.5219 7.19641 27.9108 8.62276 28.1181C10.0864 28.3308 12.0159 28.3333 14.7334 28.3333H17.2667C19.9842 28.3333 21.9137 28.3308 23.3773 28.1181C24.8037 27.9108 25.6411 27.5219 26.2631 26.8494C26.8954 26.1659 27.2691 25.2278 27.4657 23.6471C27.6649 22.0452 27.6667 19.94 27.6667 17.009V16.3243C27.6667 14.4677 27.666 12.9425 27.6148 11.6666Z" fill="#666666"/>
</svg>
