<svg width="32" height="32" viewBox="0 0 32 32" fill="none" xmlns="http://www.w3.org/2000/svg">
<path fill-rule="evenodd" clip-rule="evenodd" d="M7.08903 1.71514C7.84461 1.8713 8.44634 2.37896 8.8202 3.04967L9.98444 5.13835L10.0111 5.18625C10.4498 5.97319 10.819 6.63544 11.0601 7.21114C11.3158 7.82183 11.4677 8.42404 11.3983 9.08985C11.3288 9.75567 11.056 10.3136 10.6797 10.8584C10.3251 11.3719 9.82719 11.9438 9.23559 12.6233L9.19958 12.6646L6.26511 16.0353C8.6209 19.8966 12.0995 23.3768 15.9648 25.735L19.3354 22.8005L19.3768 22.7645C20.0563 22.1729 20.6281 21.675 21.1417 21.3203C21.6865 20.9441 22.2444 20.6712 22.9102 20.6018C23.576 20.5324 24.1782 20.6843 24.7889 20.94C25.3646 21.1811 26.0269 21.5503 26.8138 21.9889L26.8617 22.0156L28.9504 23.1799C29.6211 23.5537 30.1288 24.1555 30.2849 24.911C30.4427 25.6745 30.21 26.4419 29.6959 27.0726C27.8307 29.3611 24.8423 30.8182 21.7074 30.1858C19.7803 29.7971 17.879 29.1495 15.5794 27.8306C10.959 25.1808 6.81618 21.0358 4.16942 16.4206C2.85059 14.121 2.20297 12.2197 1.81425 10.2927C1.18186 7.15774 2.63897 4.16937 4.92745 2.30416C5.55817 1.7901 6.32556 1.55734 7.08903 1.71514ZM17.8276 26.7649C19.3828 27.5312 20.7354 27.9495 22.1028 28.2253C24.3642 28.6815 26.6473 27.6474 28.1456 25.8091C28.3423 25.5677 28.3435 25.3992 28.3263 25.3158C28.3075 25.2246 28.2311 25.0687 27.9767 24.9268L25.888 23.7626C25.0404 23.2902 24.4762 22.9773 24.0164 22.7848C23.5799 22.602 23.3294 22.5689 23.1177 22.591C22.9059 22.6131 22.6676 22.6971 22.2782 22.966C21.868 23.2493 21.3805 23.6718 20.6487 24.3089L17.8276 26.7649ZM5.23515 14.1725L7.69113 11.3514C8.32824 10.6196 8.75075 10.132 9.03404 9.72184C9.30295 9.33246 9.38697 9.0942 9.40906 8.88241C9.43114 8.67063 9.39809 8.42016 9.2153 7.98368C9.02274 7.52385 8.70991 6.95962 8.2375 6.1121L7.07326 4.02342C6.93142 3.76895 6.77544 3.6926 6.68422 3.67374C6.60089 3.65652 6.43238 3.65773 6.19101 3.85446C4.35264 5.35281 3.31858 7.63582 3.77476 9.89722C4.0506 11.2647 4.46885 12.6173 5.23515 14.1725Z" fill="#666666"/>
</svg>
