<svg width="32" height="32" viewBox="0 0 32 32" fill="none" xmlns="http://www.w3.org/2000/svg">
<path fill-rule="evenodd" clip-rule="evenodd" d="M5.96013 5.95952C6.35065 5.56899 6.98382 5.56899 7.37434 5.95952L16.0006 14.5857L24.6268 5.95952C25.0173 5.56899 25.6505 5.56899 26.041 5.95952C26.4315 6.35004 26.4315 6.98321 26.041 7.37373L17.4148 16L26.041 24.6262C26.4315 25.0167 26.4315 25.6499 26.041 26.0404C25.6505 26.4309 25.0173 26.4309 24.6268 26.0404L16.0006 17.4142L7.37434 26.0404C6.98382 26.4309 6.35065 26.4309 5.96013 26.0404C5.56961 25.6499 5.56961 25.0167 5.96013 24.6262L14.5864 16L5.96013 7.37373C5.56961 6.98321 5.56961 6.35004 5.96013 5.95952Z" fill="#666666"/>
</svg>
