<svg width="32" height="32" viewBox="0 0 32 32" fill="none" xmlns="http://www.w3.org/2000/svg">
<path d="M9.22084 5.14404C10.5786 5.01885 12.2604 5.00242 14.4132 5.00028L15.2571 2.99996L9.22084 5.14404Z" fill="#666666"/>
<path fill-rule="evenodd" clip-rule="evenodd" d="M15.3348 2.99996L15.2571 2.99996C12.3361 2.99994 10.0419 2.99993 8.25066 3.24075C6.41512 3.48753 4.95877 4.00358 3.8145 5.14784C2.67024 6.29211 2.1542 7.74845 1.90742 9.58399C1.66659 11.3752 1.66661 13.6695 1.66663 16.5904V16.7429C1.66661 19.6638 1.66659 21.958 1.90742 23.7492C2.1542 25.5848 2.67027 27.0412 3.81452 28.1855C4.95879 29.3297 6.41513 29.8457 8.25067 30.0925C10.0419 30.3333 12.3361 30.3333 15.2571 30.3333H15.4095C18.3304 30.3333 20.6247 30.3333 22.4159 30.0925C24.2515 29.8457 25.7079 29.3297 26.8522 28.1854C27.9525 27.085 28.4722 25.6956 28.7299 23.9566C28.9832 22.2469 28.9986 20.0762 28.9998 17.3337C29.0001 16.7815 28.5526 16.3335 28.0003 16.3333C27.448 16.333 27.0001 16.7805 26.9998 17.3328C26.9986 20.1197 26.9788 22.1292 26.7515 23.6635C26.5285 25.1686 26.1221 26.087 25.4379 26.7712C24.7272 27.4819 23.7632 27.8934 22.1494 28.1103C20.5069 28.3312 18.3471 28.3333 15.3333 28.3333C12.3195 28.3333 10.1597 28.3312 8.51715 28.1103C6.9034 27.8934 5.93946 27.482 5.22873 26.7713C4.51801 26.0605 4.10654 25.0965 3.88958 23.4827C3.66875 21.8402 3.66663 19.6804 3.66663 16.6666C3.66663 13.6528 3.66875 11.493 3.88958 9.85049C4.10655 8.23673 4.518 7.27278 5.22872 6.56205C5.93945 5.85133 6.90339 5.43988 8.51716 5.22292C8.74176 5.19272 8.97604 5.16661 9.22084 5.14404L15.2571 2.99996L14.4132 5.00028C14.7108 4.99998 15.0173 4.99996 15.3333 4.99996C16.0414 4.99996 16.7045 4.99996 17.3284 5.00303C17.8807 5.00574 18.3306 4.56023 18.3333 4.00795C18.336 3.45568 17.8905 3.00577 17.3382 3.00305C16.7089 2.99996 16.0413 2.99996 15.3348 2.99996Z" fill="#666666"/>
<path fill-rule="evenodd" clip-rule="evenodd" d="M14.2908 22.5759C11.7281 20.6341 8.50041 19.5998 5.18339 19.67L5.15969 19.6702C4.37275 19.6682 3.58721 19.724 2.81035 19.8368L2.5229 17.8575C3.39286 17.7312 4.27219 17.6685 5.15295 17.6702C8.90364 17.5935 12.5699 18.7626 15.4987 20.9819C18.219 23.043 20.1425 25.8897 20.9681 29.083L19.0318 29.5836C18.3233 26.8433 16.6662 24.3758 14.2908 22.5759Z" fill="#666666"/>
<path fill-rule="evenodd" clip-rule="evenodd" d="M23.183 20.3334C20.455 20.3233 17.7993 21.3289 15.3851 23.2114L16.6149 24.7886C18.7372 23.1337 20.9686 22.3247 23.1776 22.3334L23.1826 22.3334C24.6429 22.3319 26.1097 22.6918 27.5481 23.4203L28.4518 21.6361C26.7566 20.7776 24.9821 20.3319 23.183 20.3334Z" fill="#666666"/>
<path fill-rule="evenodd" clip-rule="evenodd" d="M24.1191 5.81237C23.8628 6.13868 23.5931 6.48148 23.3837 6.69693C22.9988 7.09297 22.3657 7.10199 21.9697 6.71706C21.5736 6.33214 21.5646 5.69904 21.9495 5.30299C22.0678 5.1813 22.262 4.93887 22.5462 4.57697C22.5668 4.5508 22.5877 4.52419 22.6089 4.49719C22.8623 4.1743 23.1597 3.79551 23.466 3.43396C23.7943 3.04655 24.1617 2.64417 24.529 2.33134C24.7131 2.17457 24.9205 2.01995 25.1437 1.90051C25.359 1.78532 25.6556 1.66663 26 1.66663C26.3443 1.66663 26.6409 1.78532 26.8562 1.90051C27.0794 2.01995 27.2868 2.17457 27.4709 2.33134C27.8382 2.64417 28.2056 3.04655 28.5339 3.43396C28.8403 3.7955 29.1376 4.1743 29.3911 4.49718C29.4122 4.52418 29.4331 4.55079 29.4537 4.57697C29.738 4.93887 29.9321 5.1813 30.0504 5.30299C30.4353 5.69904 30.4263 6.33214 30.0303 6.71706C29.6342 7.10199 29.0011 7.09297 28.6162 6.69693C28.4068 6.48148 28.1372 6.13868 27.8809 5.81237C27.8611 5.78725 27.8413 5.76197 27.8213 5.73655C27.5641 5.40889 27.289 5.05848 27.008 4.72692C27.0054 4.72374 27.0027 4.72056 27 4.71739V13.3333C27 13.8856 26.5522 14.3333 26 14.3333C25.4477 14.3333 25 13.8856 25 13.3333V4.71739C24.9973 4.72056 24.9946 4.72374 24.9919 4.72692C24.7109 5.05849 24.4358 5.4089 24.1786 5.73657C24.1586 5.76198 24.1388 5.78725 24.1191 5.81237Z" fill="#666666"/>
</svg>
