<svg width="32" height="32" viewBox="0 0 32 32" fill="none" xmlns="http://www.w3.org/2000/svg">
<path fill-rule="evenodd" clip-rule="evenodd" d="M16 1.66663C12.134 1.66663 8.99999 4.80063 8.99999 8.66663C8.99999 12.5326 12.134 15.6666 16 15.6666C19.866 15.6666 23 12.5326 23 8.66663C23 4.80063 19.866 1.66663 16 1.66663ZM11 8.66663C11 5.9052 13.2386 3.66663 16 3.66663C18.7614 3.66663 21 5.9052 21 8.66663C21 11.428 18.7614 13.6666 16 13.6666C13.2386 13.6666 11 11.428 11 8.66663Z" fill="#666666"/>
<path fill-rule="evenodd" clip-rule="evenodd" d="M24.3049 20.1056C24.0881 19.9832 23.8966 19.8752 23.7415 19.7829C19.0028 16.9612 12.9972 16.9612 8.25848 19.7829C8.10339 19.8752 7.91183 19.9833 7.69494 20.1056C6.74452 20.6418 5.30784 21.4524 4.32362 22.4157C3.70806 23.0183 3.12319 23.8122 3.01686 24.785C2.90378 25.8194 3.35507 26.7902 4.26043 27.6527C5.82236 29.1408 7.69674 30.3333 10.1211 30.3333H21.8788C24.3032 30.3333 26.1776 29.1408 27.7396 27.6527C28.6449 26.7902 29.0962 25.8194 28.9831 24.785C28.8768 23.8122 28.2919 23.0183 27.6764 22.4157C26.6921 21.4524 25.2553 20.6417 24.3049 20.1056ZM9.2817 21.5013C13.3899 19.0551 18.61 19.0551 22.7183 21.5013C22.9421 21.6346 23.1874 21.7737 23.4443 21.9195C24.3945 22.4585 25.5039 23.0879 26.2774 23.845C26.7575 24.315 26.9622 24.7027 26.995 25.0023C27.021 25.2401 26.9608 25.6323 26.36 26.2047C24.9789 27.5205 23.5754 28.3333 21.8788 28.3333H10.1211C8.42455 28.3333 7.02112 27.5205 5.63999 26.2047C5.03914 25.6323 4.97902 25.2401 5.00502 25.0023C5.03776 24.7027 5.24244 24.315 5.72261 23.845C6.49607 23.0879 7.60543 22.4586 8.55557 21.9195C8.81246 21.7738 9.05789 21.6346 9.2817 21.5013Z" fill="#666666"/>
</svg>
