<svg width="32" height="32" viewBox="0 0 32 32" fill="none" xmlns="http://www.w3.org/2000/svg">
<path fill-rule="evenodd" clip-rule="evenodd" d="M8.59117 10.5271C6.52319 12.1415 4.96919 14.0729 4.08892 15.3072C3.87117 15.6126 3.76751 15.7617 3.70573 15.8804C3.66646 15.9559 3.66657 15.9765 3.66668 15.9968L3.66669 16L3.66668 16.0031C3.66657 16.0234 3.66646 16.0441 3.70573 16.1195C3.76751 16.2382 3.87115 16.3873 4.0889 16.6926C4.96917 17.927 6.52319 19.8584 8.59117 21.4729C10.6612 23.0889 13.1751 24.3333 16 24.3333C18.8249 24.3333 21.3388 23.0889 23.4089 21.4728C25.4768 19.8584 27.0309 17.9271 27.9112 16.6927C28.1289 16.3874 28.2325 16.2382 28.2943 16.1196C28.3336 16.0441 28.3335 16.0234 28.3334 16.0031L28.3334 16L28.3334 15.9968C28.3335 15.9765 28.3336 15.9558 28.2943 15.8804C28.2325 15.7617 28.1289 15.6125 27.9112 15.3072C27.0309 14.0729 25.4768 12.1415 23.4089 10.5271C21.3388 8.91104 18.8249 7.66663 16 7.66663C13.1751 7.66663 10.6612 8.91104 8.59117 10.5271ZM7.36043 8.95061C9.63462 7.17517 12.5726 5.66663 16 5.66663C19.4274 5.66663 22.3654 7.17517 24.6396 8.95061C26.9158 10.7276 28.5984 12.8263 29.5395 14.146C29.5628 14.1786 29.5865 14.2116 29.6104 14.2449C29.948 14.7144 30.3334 15.2504 30.3334 16C30.3334 16.7496 29.948 17.2856 29.6104 17.7551C29.5865 17.7883 29.5628 17.8212 29.5395 17.8539C28.5984 19.1736 26.9158 21.2723 24.6396 23.0493C22.3654 24.8248 19.4274 26.3333 16 26.3333C12.5726 26.3333 9.63463 24.8248 7.36043 23.0493C5.08421 21.2723 3.40173 19.1737 2.46058 17.8539M7.36043 8.95061C5.08421 10.7276 3.40171 12.8263 2.46057 14.146L7.36043 8.95061ZM2.46057 14.146C2.43729 14.1786 2.41362 14.2116 2.38971 14.2448C2.05211 14.7143 1.66669 15.2503 1.66669 16C1.66669 16.7496 2.05211 17.2856 2.38971 17.7551C2.41362 17.7884 2.43731 17.8213 2.46058 17.8539" fill="#666666"/>
<path d="M2.46058 17.8539L7.36043 8.95061L2.46057 14.146L2.46058 17.8539Z" fill="#666666"/>
<path fill-rule="evenodd" clip-rule="evenodd" d="M11 16C11 13.2385 13.2385 11 16 11C18.7615 11 21 13.2385 21 16C21 18.7614 18.7615 21 16 21C13.2385 21 11 18.7614 11 16ZM16 13C14.3431 13 13 14.343 13 16C13 17.6569 14.3431 19 16 19C17.6569 19 19 17.6569 19 16C19 14.343 17.6569 13 16 13Z" fill="#666666"/>
</svg>
