<svg width="32" height="32" viewBox="0 0 32 32" fill="none" xmlns="http://www.w3.org/2000/svg">
<path fill-rule="evenodd" clip-rule="evenodd" d="M9.33335 3.66663C6.20374 3.66663 3.66669 6.20368 3.66669 9.33329C3.66669 11.4295 4.80437 13.2612 6.50075 14.2425L7.00002 14.5313V23.7908C7.00002 24.9624 7.01772 25.2696 7.12689 25.5332C7.23605 25.7967 7.44078 26.0265 8.26922 26.8549L9.33335 27.9191L11.4372 25.8153C11.5054 25.747 11.5435 25.7088 11.5718 25.6791C11.5959 25.6537 11.6001 25.6476 11.5983 25.6499C11.6335 25.6038 11.6561 25.5493 11.6637 25.4918C11.664 25.4891 11.6649 25.4784 11.6656 25.4527C11.6666 25.4117 11.6667 25.3577 11.6667 25.2612C11.6667 25.1829 11.6666 25.1395 11.6659 25.1065C11.6653 25.0777 11.6647 25.0749 11.6647 25.0749C11.6596 25.0277 11.6444 24.9821 11.6201 24.9412C11.6201 24.9412 11.6189 24.9386 11.6021 24.9152C11.5829 24.8883 11.5569 24.8536 11.51 24.791L9.86669 22.6C9.60002 22.2444 9.60002 21.7555 9.86669 21.4L10.8 20.1555C11.3674 19.399 11.5075 19.1925 11.5812 18.9714C11.6549 18.7504 11.6667 18.5012 11.6667 17.5555V14.5313L12.166 14.2425C13.8623 13.2612 15 11.4295 15 9.33329C15 6.20368 12.463 3.66663 9.33335 3.66663ZM1.66669 9.33329C1.66669 5.09911 5.09917 1.66663 9.33335 1.66663C13.5675 1.66663 17 5.09911 17 9.33329C17 11.9606 15.678 14.2781 13.6667 15.6586V17.5555C13.6667 17.5992 13.6667 17.6424 13.6668 17.6851C13.6673 18.4396 13.6678 19.036 13.4785 19.6039C13.2892 20.1718 12.931 20.6487 12.4778 21.2519C12.4522 21.286 12.4262 21.3206 12.4 21.3555L11.9167 22L13.11 23.591C13.1157 23.5987 13.1216 23.6064 13.1274 23.6142C13.1988 23.7093 13.2751 23.8109 13.3408 23.9218C13.5104 24.208 13.6168 24.5273 13.6529 24.858C13.6669 24.9861 13.6668 25.1132 13.6667 25.2321C13.6667 25.2418 13.6667 25.2515 13.6667 25.2612C13.6667 25.2731 13.6667 25.2852 13.6667 25.2973C13.6669 25.4439 13.667 25.6002 13.6462 25.7562C13.5924 26.1595 13.4341 26.5417 13.1869 26.8649C13.0914 26.99 12.9807 27.1004 12.8769 27.204C12.8684 27.2125 12.8598 27.221 12.8514 27.2295L10.0405 30.0404C9.64994 30.4309 9.01677 30.4309 8.62625 30.0404L6.85501 28.2692C6.81657 28.2307 6.77856 28.1928 6.74099 28.1553C6.08171 27.4973 5.55994 26.9765 5.27913 26.2986C4.99832 25.6206 4.99903 24.8834 4.99992 23.952C4.99997 23.8989 5.00002 23.8452 5.00002 23.7908V15.6586C2.98871 14.2781 1.66669 11.9606 1.66669 9.33329ZM26.7244 7.68968C26.3944 7.66717 25.9683 7.66663 25.3334 7.66663H20C19.4477 7.66663 19 7.21891 19 6.66663C19 6.11434 19.4477 5.66663 20 5.66663L25.367 5.66663C25.9596 5.66662 26.4544 5.66661 26.8605 5.69432C27.2833 5.72317 27.6827 5.78536 28.0699 5.94573C28.9683 6.31788 29.6821 7.03168 30.0542 7.93012C30.2146 8.31731 30.2768 8.71667 30.3057 9.13947C30.3334 9.54562 30.3334 10.0403 30.3334 10.6329V10.7003C30.3334 11.2929 30.3334 11.7876 30.3057 12.1938C30.2768 12.6166 30.2146 13.0159 30.0542 13.4031C29.6821 14.3016 28.9683 15.0154 28.0699 15.3875C27.6827 15.5479 27.2833 15.6101 26.8605 15.6389C26.4544 15.6666 25.9596 15.6666 25.367 15.6666H20C19.4477 15.6666 19 15.2189 19 14.6666C19 14.1143 19.4477 13.6666 20 13.6666H25.3334C25.9683 13.6666 26.3944 13.6661 26.7244 13.6436C27.0453 13.6217 27.2016 13.5824 27.3045 13.5398C27.7129 13.3706 28.0373 13.0461 28.2065 12.6378C28.2491 12.5349 28.2884 12.3786 28.3103 12.0576C28.3328 11.7277 28.3334 11.3016 28.3334 10.6666C28.3334 10.0317 28.3328 9.60557 28.3103 9.27561C28.2884 8.95465 28.2491 8.79836 28.2065 8.69549C28.0373 8.28711 27.7129 7.96265 27.3045 7.79349C27.2016 7.75088 27.0453 7.71158 26.7244 7.68968ZM8.33335 9.33329C8.33335 8.78101 8.78107 8.33329 9.33335 8.33329H9.34533C9.89761 8.33329 10.3453 8.78101 10.3453 9.33329C10.3453 9.88558 9.89761 10.3333 9.34533 10.3333H9.33335C8.78107 10.3333 8.33335 9.88558 8.33335 9.33329ZM16.3334 18.6666C16.3334 18.1143 16.7811 17.6666 17.3334 17.6666H25.367C25.9596 17.6666 26.4544 17.6666 26.8605 17.6943C27.2833 17.7232 27.6827 17.7854 28.0699 17.9457C28.9683 18.3179 29.6821 19.0317 30.0542 19.9301C30.2146 20.3173 30.2768 20.7167 30.3057 21.1395C30.3334 21.5456 30.3334 22.0403 30.3334 22.6329V22.7003C30.3334 23.2929 30.3334 23.7876 30.3057 24.1938C30.2768 24.6166 30.2146 25.0159 30.0542 25.4031C29.6821 26.3016 28.9683 27.0154 28.0699 27.3875C27.6827 27.5479 27.2833 27.6101 26.8605 27.6389C26.4544 27.6666 25.9596 27.6666 25.367 27.6666H17.3334C16.7811 27.6666 16.3334 27.2189 16.3334 26.6666C16.3334 26.1143 16.7811 25.6666 17.3334 25.6666H25.3334C25.9683 25.6666 26.3944 25.6661 26.7244 25.6436C27.0453 25.6217 27.2016 25.5824 27.3045 25.5398C27.7129 25.3706 28.0373 25.0461 28.2065 24.6378C28.2491 24.5349 28.2884 24.3786 28.3103 24.0576C28.3328 23.7277 28.3334 23.3016 28.3334 22.6666C28.3334 22.0317 28.3328 21.6056 28.3103 21.2756C28.2884 20.9546 28.2491 20.7984 28.2065 20.6955C28.0373 20.2871 27.7129 19.9626 27.3045 19.7935C27.2016 19.7509 27.0453 19.7116 26.7244 19.6897C26.3944 19.6672 25.9683 19.6666 25.3334 19.6666H17.3334C16.7811 19.6666 16.3334 19.2189 16.3334 18.6666Z" fill="#666666"/>
</svg>
