<svg width="32" height="32" viewBox="0 0 32 32" fill="none" xmlns="http://www.w3.org/2000/svg">
<path d="M20.0078 8.3334C19.8499 8.33217 19.694 8.36834 19.5527 8.43895C19.4115 8.50956 19.289 8.6126 19.1953 8.73965C19.1173 8.84533 19.0609 8.96532 19.0293 9.09279C18.9977 9.22026 18.9915 9.3527 19.0111 9.48256C19.0307 9.61242 19.0757 9.73715 19.1435 9.84962C19.2113 9.9621 19.3006 10.0601 19.4062 10.1381C19.4062 10.1381 21.0482 11.3489 22.6771 12.7631C23.4915 13.4702 24.301 14.2307 24.875 14.8803C24.9106 14.9206 24.941 14.9598 24.9739 15.0001H5.33331C5.0681 15.0001 4.81374 15.1054 4.62621 15.293C4.43867 15.4805 4.33331 15.7349 4.33331 16.0001C4.33331 16.2653 4.43867 16.5196 4.62621 16.7072C4.81374 16.8947 5.0681 17.0001 5.33331 17.0001H24.9739C24.941 17.0403 24.9106 17.0795 24.875 17.1199C24.301 17.7695 23.4915 18.5299 22.6771 19.2371C21.0483 20.6513 19.4062 21.862 19.4062 21.862C19.3006 21.94 19.2113 22.038 19.1435 22.1505C19.0757 22.263 19.0307 22.3877 19.0111 22.5176C18.9915 22.6474 18.9977 22.7799 19.0293 22.9074C19.0609 23.0348 19.1173 23.1548 19.1953 23.2605C19.2733 23.3662 19.3713 23.4554 19.4838 23.5232C19.5962 23.591 19.721 23.636 19.8508 23.6556C19.9807 23.6752 20.1131 23.669 20.2406 23.6374C20.3681 23.6058 20.4881 23.5494 20.5937 23.4714C20.5937 23.4714 22.2851 22.2274 23.9896 20.7475C24.8418 20.0075 25.699 19.2105 26.375 18.4454C27.051 17.6803 27.6666 17.0717 27.6666 16.0001C27.6667 14.9284 27.051 14.3198 26.375 13.5548C25.699 12.7897 24.8418 11.9926 23.9896 11.2527C22.2851 9.77277 20.5937 8.52872 20.5937 8.52872C20.4239 8.40342 20.2188 8.33505 20.0078 8.3334Z" fill="#666666"/>
</svg>
