<svg width="32" height="32" viewBox="0 0 32 32" fill="none" xmlns="http://www.w3.org/2000/svg">
<path fill-rule="evenodd" clip-rule="evenodd" d="M8.47255 10.8244C8.75363 10.349 9.36688 10.1915 9.84229 10.4725L13.765 12.7917C14.8908 13.4573 15.4894 13.6666 16 13.6666C16.5107 13.6666 17.1093 13.4574 18.2351 12.7917L22.1578 10.4725C22.6332 10.1915 23.2464 10.349 23.5275 10.8244C23.8086 11.2998 23.651 11.9131 23.1756 12.1941L19.253 14.5133C19.253 14.5133 19.253 14.5133 19.253 14.5133C18.0918 15.1998 17.0899 15.6666 16 15.6666C14.9102 15.6666 13.9082 15.1999 12.7471 14.5133C12.7471 14.5133 12.7471 14.5133 12.7471 14.5133L8.82443 12.1941C8.34902 11.9131 8.19148 11.2998 8.47255 10.8244Z" fill="#666666"/>
<path fill-rule="evenodd" clip-rule="evenodd" d="M12.1067 3.71569C14.7107 3.65027 17.2893 3.65027 19.8934 3.7157L19.971 3.71765C22.0041 3.7687 23.64 3.80978 24.9511 4.03812C26.3237 4.27717 27.4393 4.73567 28.3818 5.68172C29.3204 6.62382 29.7765 7.72342 30.011 9.07385C30.2344 10.3598 30.2683 11.956 30.3104 13.9334L30.3121 14.0111C30.3121 14.0111 30.3121 14.0112 30.3121 14.0111C30.3405 15.3395 30.3405 16.6603 30.3121 17.9888C30.3121 17.9887 30.3121 17.9888 30.3121 17.9888L30.3104 18.0666C30.2683 20.0439 30.2344 21.6401 30.011 22.9261C29.7765 24.2765 29.3204 25.3761 28.3818 26.3181C27.4394 27.2643 26.3238 27.7228 24.9511 27.9618C23.6401 28.1901 22.0043 28.2312 19.9714 28.2823L19.8934 28.2842C17.2893 28.3497 14.7107 28.3497 12.1067 28.2842L12.0286 28.2823C9.99577 28.2312 8.35995 28.1901 7.04896 27.9618C5.67629 27.7228 4.56065 27.2643 3.61816 26.3181C2.67963 25.3761 2.22354 24.2765 1.98904 22.9261C1.76575 21.6403 1.73174 20.0443 1.68961 18.0672L1.68793 17.9888C1.6596 16.6603 1.6596 15.3396 1.68793 14.0111L1.6896 13.9328C1.73173 11.9557 1.76574 10.3597 1.98903 9.07382C2.22354 7.72342 2.67964 6.62383 3.61818 5.68173C4.56067 4.73565 5.67629 4.27715 7.04896 4.03809C8.36005 3.80976 9.99602 3.76868 12.0291 3.71764L12.1067 3.71569ZM19.8432 5.71507C17.2726 5.65048 14.7275 5.65048 12.1569 5.71506C10.028 5.76854 8.54041 5.80845 7.3921 6.00844C6.28873 6.20059 5.60076 6.52541 5.03508 7.09326C4.46544 7.66506 4.14566 8.34427 3.95954 9.41602C3.76515 10.5354 3.73171 11.9797 3.68748 14.0537C3.65976 15.3538 3.65976 16.6461 3.68748 17.9461C3.73171 20.0202 3.76516 21.4645 3.95955 22.5839C4.14566 23.6556 4.46544 24.3349 5.03507 24.9066C5.60075 25.4745 6.28873 25.7993 7.3921 25.9915C8.54041 26.1915 10.028 26.2314 12.1569 26.2848C14.7275 26.3495 17.2726 26.3495 19.8432 26.2848C21.9721 26.2314 23.4597 26.1915 24.608 25.9915C25.7113 25.7993 26.3992 25.4745 26.9649 24.9067C27.5345 24.3349 27.8544 23.6556 28.0405 22.5839C28.2349 21.4645 28.2683 20.0202 28.3125 17.9462C28.3403 16.6462 28.3403 15.3538 28.3125 14.0539C28.2683 11.9799 28.2349 10.5354 28.0405 9.41605C27.8544 8.34431 27.5346 7.6651 26.9649 7.09329C26.3993 6.52546 25.7113 6.20062 24.608 6.00846C23.4597 5.80847 21.9721 5.76856 19.8432 5.71507Z" fill="#666666"/>
</svg>
