<svg width="32" height="32" viewBox="0 0 32 32" fill="none" xmlns="http://www.w3.org/2000/svg">
<path fill-rule="evenodd" clip-rule="evenodd" d="M4 8.33329C4.55228 8.33329 5 8.78101 5 9.33329V22.8817C5 23.2311 5.20731 23.7072 6.46018 24.459C7.6817 25.192 9.54661 25.9825 12.1717 27.0914C13.5307 27.6655 14.3615 28.0085 15 28.1841V15.1397C15 14.5874 15.4477 14.1397 16 14.1397C16.5523 14.1397 17 14.5874 17 15.1397V28.1841C17.6385 28.0085 18.4693 27.6655 19.8283 27.0914C22.4534 25.9825 24.3183 25.192 25.5398 24.459C26.7927 23.7072 27 23.2311 27 22.8817V9.33329C27 8.78101 27.4477 8.33329 28 8.33329C28.5523 8.33329 29 8.78101 29 9.33329V22.8817C29 24.3756 27.9102 25.3691 26.5689 26.174C25.2111 26.9888 23.2135 27.8326 20.6893 28.8989L20.6066 28.9338C20.5392 28.9623 20.4726 28.9904 20.4069 29.0182C18.5154 29.8178 17.2959 30.3333 16 30.3333C14.7041 30.3333 13.4846 29.8178 11.5931 29.0182C11.5273 28.9904 11.4608 28.9623 11.3935 28.9338L11.3106 28.8988C8.78646 27.8326 6.78895 26.9888 5.4311 26.174C4.08978 25.3691 3 24.3756 3 22.8817V9.33329C3 8.78101 3.44772 8.33329 4 8.33329Z" fill="#666666"/>
<path fill-rule="evenodd" clip-rule="evenodd" d="M16 3.66663C14.9899 3.66663 14.0272 4.10651 11.5368 5.3116L7.64187 7.19631C7.64187 7.19631 7.64187 7.19631 7.64187 7.19631C6.5428 7.72814 5.82138 8.08006 5.36131 8.39082C5.16345 8.52447 5.06786 8.61503 5.02362 8.66663C5.06786 8.71823 5.16345 8.80878 5.36131 8.94243C5.82138 9.25319 6.54279 9.60511 7.64187 10.1369L11.5368 12.0216C14.0272 13.2268 14.9899 13.6666 16 13.6666C17.0101 13.6666 17.9728 13.2268 20.4632 12.0216L24.3582 10.1369C25.4572 9.60511 26.1786 9.25319 26.6387 8.94243C26.8365 8.80879 26.9321 8.71823 26.9764 8.66662C26.9321 8.61502 26.8365 8.52446 26.6387 8.39083C26.1786 8.08006 25.4572 7.72814 24.3582 7.19631C24.3582 7.19631 24.3582 7.19632 24.3582 7.19631L20.4632 5.31161C17.9728 4.1065 17.0101 3.66663 16 3.66663ZM27.0114 8.71916C27.0105 8.71909 27.0073 8.71397 27.0046 8.70402C27.0109 8.71426 27.0122 8.71923 27.0114 8.71916ZM27.0046 8.62923C27.0073 8.61928 27.0105 8.61416 27.0114 8.61409C27.0122 8.61402 27.0109 8.61899 27.0046 8.62923ZM4.98865 8.6141C4.98953 8.61417 4.99269 8.61929 4.99545 8.62924C4.98914 8.619 4.98776 8.61403 4.98865 8.6141ZM4.99545 8.70401C4.99269 8.71396 4.98953 8.71908 4.98865 8.71915C4.98776 8.71923 4.98914 8.71425 4.99545 8.70401ZM10.8867 3.40428C13.0758 2.34416 14.475 1.66663 16 1.66663C17.5251 1.66663 18.9242 2.34417 21.1134 3.40434C21.1862 3.43957 21.2598 3.47523 21.3344 3.5113C21.3344 3.5113 21.3344 3.5113 21.3344 3.5113L25.3018 5.43106C26.3087 5.91828 27.1637 6.33193 27.7582 6.73348C28.3534 7.13555 29 7.73055 29 8.66663C29 9.6027 28.3534 10.1977 27.7582 10.5998C27.1637 11.0013 26.3087 11.415 25.3017 11.9022L21.3344 13.8219C21.3344 13.8219 21.3344 13.8219 21.3344 13.8219C21.2598 13.858 21.1862 13.8937 21.1134 13.9289C18.9242 14.9891 17.5251 15.6666 16 15.6666C14.4749 15.6666 13.0758 14.9891 10.8865 13.9289C10.8138 13.8937 10.7402 13.858 10.6657 13.822C10.6657 13.8219 10.6657 13.822 10.6657 13.822L6.77072 11.9372L6.6985 11.9023C5.69139 11.415 4.83636 11.0014 4.24184 10.5998C3.64656 10.1977 3 9.60269 3 8.66663C3 7.73056 3.64656 7.13556 4.24184 6.73348C4.83636 6.3319 5.69138 5.91822 6.6985 5.43095C6.72249 5.41934 6.74656 5.4077 6.77072 5.39601L10.6656 3.5113C10.6656 3.5113 10.6656 3.5113 10.6656 3.5113C10.7402 3.47522 10.8139 3.43954 10.8867 3.40428Z" fill="#666666"/>
<path fill-rule="evenodd" clip-rule="evenodd" d="M7.10557 15.5527C7.35256 15.0588 7.95323 14.8585 8.44721 15.1055L11.1139 16.4389C11.6079 16.6859 11.8081 17.2865 11.5611 17.7805C11.3141 18.2745 10.7134 18.4747 10.2195 18.2277L7.55279 16.8944C7.05881 16.6474 6.85858 16.0467 7.10557 15.5527Z" fill="#666666"/>
<path fill-rule="evenodd" clip-rule="evenodd" d="M23.5611 4.88608C23.8081 5.38006 23.6079 5.98073 23.1139 6.22772L9.78055 12.8944C9.28657 13.1414 8.68589 12.9412 8.43891 12.4472C8.19192 11.9532 8.39214 11.3525 8.88612 11.1055L22.2195 4.43887C22.7134 4.19188 23.3141 4.3921 23.5611 4.88608Z" fill="#666666"/>
</svg>
