<svg width="32" height="32" viewBox="0 0 32 32" fill="none" xmlns="http://www.w3.org/2000/svg">
<path fill-rule="evenodd" clip-rule="evenodd" d="M16 4.33337C16.5523 4.33337 17 4.78109 17 5.33337V15H26.6667C27.219 15 27.6667 15.4478 27.6667 16C27.6667 16.5523 27.219 17 26.6667 17H17V26.6667C17 27.219 16.5523 27.6667 16 27.6667C15.4478 27.6667 15 27.219 15 26.6667V17H5.33337C4.78109 17 4.33337 16.5523 4.33337 16C4.33337 15.4478 4.78109 15 5.33337 15H15V5.33337C15 4.78109 15.4478 4.33337 16 4.33337Z" fill="#666666"/>
</svg>
