<svg width="32" height="32" viewBox="0 0 32 32" fill="none" xmlns="http://www.w3.org/2000/svg">
<path fill-rule="evenodd" clip-rule="evenodd" d="M14.6666 1.66663C7.48692 1.66663 1.66663 7.48692 1.66663 14.6666C1.66663 21.8463 7.48692 27.6666 14.6666 27.6666C17.8965 27.6666 20.8513 26.4887 23.1248 24.5391L28.6262 30.0404C29.0167 30.4309 29.6499 30.4309 30.0404 30.0404C30.4309 29.6499 30.4309 29.0167 30.0404 28.6262L24.5391 23.1248C26.4887 20.8513 27.6666 17.8965 27.6666 14.6666C27.6666 7.48692 21.8463 1.66663 14.6666 1.66663ZM3.66663 14.6666C3.66663 8.59149 8.59149 3.66663 14.6666 3.66663C20.7418 3.66663 25.6666 8.59149 25.6666 14.6666C25.6666 20.7418 20.7418 25.6666 14.6666 25.6666C8.59149 25.6666 3.66663 20.7418 3.66663 14.6666Z" fill="#666666"/>
</svg>
