<svg width="32" height="32" viewBox="0 0 32 32" fill="none" xmlns="http://www.w3.org/2000/svg">
<path fill-rule="evenodd" clip-rule="evenodd" d="M21.6064 7.66663C21.3494 7.66663 21.1001 7.69183 20.8612 7.73921C20.3195 7.84665 19.7932 7.49459 19.6858 6.95286C19.5784 6.41112 19.9304 5.88486 20.4722 5.77742C20.8389 5.7047 21.2184 5.66663 21.6064 5.66663C24.4949 5.66663 27 7.81896 27 10.6666C27 13.5143 24.4949 15.6666 21.6064 15.6666C21.2185 15.6666 20.8388 15.6286 20.4719 15.5557C19.9302 15.4482 19.5783 14.9218 19.6859 14.3801C19.7934 13.8384 20.3198 13.4865 20.8615 13.594C21.1001 13.6414 21.3493 13.6666 21.6064 13.6666C23.5711 13.6666 25 12.2372 25 10.6666C25 9.09603 23.5711 7.66663 21.6064 7.66663ZM22.3334 20C22.3334 19.4477 22.7811 19 23.3334 19C24.0359 19 24.9728 19.1887 25.8983 19.4759C26.839 19.7677 27.8554 20.1885 28.7218 20.7072C29.5507 21.2036 30.4037 21.8842 30.7896 22.7624C30.9965 23.2334 31.0715 23.7697 30.9205 24.3264C30.7731 24.8694 30.4365 25.3378 29.9883 25.7376C28.7964 26.8008 27.3488 27.6666 25.4751 27.6666H24.8215C24.2692 27.6666 23.8215 27.2189 23.8215 26.6666C23.8215 26.1143 24.2692 25.6666 24.8215 25.6666H25.4751C26.6675 25.6666 27.6589 25.1354 28.6569 24.2452C28.904 24.0247 28.9715 23.8719 28.9902 23.8027C29.0053 23.7472 29.0083 23.6803 28.9586 23.567C28.831 23.2767 28.4314 22.8645 27.6943 22.4231C26.9947 22.0042 26.1318 21.6424 25.3057 21.386C24.4644 21.125 23.7469 21 23.3334 21C22.7811 21 22.3334 20.5522 22.3334 20Z" fill="#666666"/>
<path d="M8.14693 21.6276L5.50276 20.6001C5.37863 20.6667 5.22336 20.7454 5.04621 20.8353L2.19161 22.5974L1.01645 24.5496L2.14095 26.9556H6.45622C5.34853 26.8009 4.38984 26.2494 3.44278 25.4373C2.97157 25.0333 2.99768 24.8242 3.00185 24.7908C3.01513 24.6815 3.11826 24.4465 3.51365 24.0981C4.13942 23.5469 5.03776 23.088 5.82764 22.6844C6.04512 22.5733 6.25438 22.4664 6.44746 22.363C6.99247 22.0709 7.56153 21.8258 8.14693 21.6276Z" fill="#666666"/>
<path d="M18.4973 20.6001C14.516 18.4666 9.48405 18.4666 5.50276 20.6001L8.14693 21.6276C11.204 20.5926 14.7064 20.8377 17.5526 22.363C17.7457 22.4664 17.9549 22.5733 18.1724 22.6844C18.9623 23.0879 19.8607 23.5469 20.4864 24.0981C20.8818 24.4465 20.9851 24.6828 20.9984 24.792C21.0025 24.8255 21.0285 25.0333 20.5572 25.4374C20.2664 25.6868 19.9744 25.9116 19.6774 26.1079L21.8591 26.9556C22.6366 26.289 23.096 25.4748 22.9836 24.5497C22.881 23.7047 22.3262 23.0535 21.8085 22.5974C20.9687 21.8576 19.7437 21.2361 18.9538 20.8353C18.7767 20.7454 18.6214 20.6667 18.4973 20.6001Z" fill="#666666"/>
<path d="M16.8991 27H7.10099C6.88013 27 6.66552 26.9849 6.45622 26.9556H2.14095C3.4675 28.0931 5.05659 29 7.10099 29H16.8991C18.9435 29 20.5326 28.0931 21.8591 26.9556H17.5439C17.3346 26.9849 17.12 27 16.8991 27Z" fill="#666666"/>
<path d="M21.8591 26.9556L19.6774 26.1079C19.0073 26.5507 18.3113 26.8484 17.5439 26.9556H21.8591Z" fill="#666666"/>
<path d="M1.01645 24.5496C0.904076 25.4748 1.36348 26.289 2.14095 26.9556L1.01645 24.5496Z" fill="#666666"/>
<path d="M2.19161 22.5974C1.6739 23.0535 1.11907 23.7047 1.01645 24.5496L2.19161 22.5974Z" fill="#666666"/>
<path d="M5.04621 20.8353C4.25634 21.2361 3.03142 21.8576 2.19161 22.5974L5.04621 20.8353Z" fill="#666666"/>
<path fill-rule="evenodd" clip-rule="evenodd" d="M12 5.66663C9.60679 5.66663 7.6667 7.60672 7.6667 9.99996C7.6667 12.3932 9.60679 14.3333 12 14.3333C14.3932 14.3333 16.3334 12.3932 16.3334 9.99996C16.3334 7.60673 14.3932 5.66663 12 5.66663ZM5.6667 9.99996C5.6667 6.50215 8.50222 3.66663 12 3.66663C15.4978 3.66663 18.3334 6.50215 18.3334 9.99996C18.3334 13.4978 15.4978 16.3333 12 16.3333C8.50222 16.3333 5.6667 13.4978 5.6667 9.99996Z" fill="#666666"/>
</svg>
